<svg width="900" height="600" xmlns="http://www.w3.org/2000/svg"><path fill="#2A2A2A" d="M0 0h900v600H0z"/><path d="m0 403 30 2.3c30 2.4 90 7 150 7s120-4.6 180-5.8c60-1.2 120 1.2 180 17.5s120 46.7 180 54.2 120-7.9 150-15.5l30-7.7v146H0Z" fill="#5528fa"/><path d="m0 487 30 2.7c30 2.6 90 8 150 15.1 60 7.2 120 16.2 180 15.9 60-.4 120-10 180-17s120-11.4 180-12.5c60-1.2 120 .8 150 1.8l30 1v107H0Z" fill="#4b2f8c"/><path d="m0 511 30 4.8c30 4.9 90 14.5 150 15.4 60 .8 120-7.2 180-3.7s120 18.5 180 17.8c60-.6 120-17 180-23.1 60-6.2 120-2.2 150-.2l30 2v77H0Z" fill="#2a2a2a"/></svg>