<svg id="visual" viewBox="0 0 900 600" width="900" height="600" xmlns="http://www.w3.org/2000/svg" xmlns:xlink="http://www.w3.org/1999/xlink" version="1.1"><rect x="0" y="0" width="900" height="600" fill="#2A2A2A"></rect><path d="M86 0L115 33.3C144 66.7 202 133.3 238.7 200C275.3 266.7 290.7 333.3 263 400C235.3 466.7 164.7 533.3 129.3 566.7L94 600L0 600L0 566.7C0 533.3 0 466.7 0 400C0 333.3 0 266.7 0 200C0 133.3 0 66.7 0 33.3L0 0Z" fill="#ffe259"></path><path d="M78 0L103.7 33.3C129.3 66.7 180.7 133.3 187.8 200C195 266.7 158 333.3 135.8 400C113.7 466.7 106.3 533.3 102.7 566.7L99 600L0 600L0 566.7C0 533.3 0 466.7 0 400C0 333.3 0 266.7 0 200C0 133.3 0 66.7 0 33.3L0 0Z" fill="#5528fa"></path></svg>