<svg id="visual" viewBox="0 0 900 600" width="900" height="600" xmlns="http://www.w3.org/2000/svg" xmlns:xlink="http://www.w3.org/1999/xlink" version="1.1"><rect width="900" height="600" fill="#111111"></rect><g><g transform="translate(669 104)"><path d="M54 -38.9C73.7 -18.3 96.1 4.3 94.1 24.9C92.1 45.4 65.9 63.9 38.5 75.4C11 86.9 -17.6 91.4 -33 79.7C-48.4 68 -50.6 40 -57.9 12.1C-65.2 -15.9 -77.6 -43.9 -68.8 -61.9C-60 -79.9 -30 -88.1 -6.4 -82.9C17.1 -77.8 34.3 -59.4 54 -38.9Z" fill="#592aff"></path></g><g transform="translate(270 273)"><path d="M51.5 -39.2C65.9 -23 76.3 -1.6 73.2 18.6C70.1 38.8 53.6 57.9 35 63.2C16.3 68.6 -4.4 60.3 -24.2 50.6C-44.1 41 -63.1 29.8 -66.4 15.2C-69.7 0.5 -57.3 -17.6 -43.6 -33.7C-30 -49.8 -15 -63.7 1.8 -65.1C18.5 -66.5 37.1 -55.4 51.5 -39.2Z" fill="#592aff"></path></g><g transform="translate(506 428)"><path d="M32.5 -26.1C39.9 -16.7 42.1 -3.3 39.9 10.1C37.6 23.5 30.9 36.8 17.4 47.8C3.9 58.8 -16.4 67.4 -26.8 60.5C-37.2 53.6 -37.8 31.2 -40 11.9C-42.3 -7.4 -46.1 -23.6 -39.7 -32.8C-33.3 -42 -16.6 -44.1 -2 -42.5C12.6 -40.9 25.1 -35.5 32.5 -26.1Z" fill="#592aff"></path></g></g></svg>