<svg width="900" height="600" xmlns="http://www.w3.org/2000/svg"><path fill="#2B2B2B" d="M0 0h900v600H0z"/><path d="m0 234 25-3.2c25-3.1 75-9.5 125-7.1 50 2.3 100 13.3 150 33.6 50 20.4 100 50 150 49.4 50-.7 100-31.7 150-22.2s100 59.5 150 68 100-24.5 125-41l25-16.5V0H0Z" fill="#5528fa"/><path d="m0 212 25-.7c25-.6 75-2 125-10.6 50-8.7 100-24.7 150-36.5 50-11.9 100-19.5 150-8.9 50 10.7 100 39.7 150 46.5 50 6.9 100-8.5 150-2.5s100 33.4 125 47l25 13.7V0H0Z" fill="#4b2f8c"/><path d="m0 120 25 4c25 4 75 12 125 17.5s100 8.5 150 3.2c50-5.4 100-19 150-28.2s100-13.8 150-11c50 2.8 100 13.2 150 9.2s100-22.4 125-31.5l25-9.2V0H0Z" fill="#2b2b2b"/></svg>